<svg width="506" height="212" viewBox="0 0 506 212" fill="none" xmlns="http://www.w3.org/2000/svg">
<g filter="url(#filter0_d_4578_79203)">
<rect x="2" y="1" width="502" height="208" rx="8" fill="#8B8477"/>
<path d="M147.697 123.535L147.444 123.798L154.703 130.722L154.956 130.459L147.697 123.535Z" fill="#32302C"/>
<path d="M121.406 131.141L119.021 140.866L119.376 140.952L121.761 131.228L121.406 131.141Z" fill="#32302C"/>
<path d="M101.999 112.372L92.3505 115.173L92.4527 115.522L102.102 112.721L101.999 112.372Z" fill="#32302C"/>
<path d="M101.362 79.3683L101.109 79.6311L108.368 86.5546L108.621 86.2917L101.362 79.3683Z" fill="#32302C"/>
<path d="M136.659 69.067L134.271 78.7903L134.625 78.8768L137.014 69.1535L136.659 69.067Z" fill="#32302C"/>
<path d="M163.595 94.5304L153.944 97.3265L154.046 97.6759L163.697 94.8798L163.595 94.5304Z" fill="#32302C"/>
<path d="M127.768 132.905L127.738 142.915L128.104 142.916L128.134 132.906L127.768 132.905Z" fill="#32302C"/>
<path d="M103.65 118.732L94.9303 123.71L95.112 124.025L103.832 119.047L103.65 118.732Z" fill="#32302C"/>
<path d="M95.2557 85.8451L95.072 86.1596L103.759 91.1934L103.943 90.8789L95.2557 85.8451Z" fill="#32302C"/>
<path d="M128.006 67.1542L127.97 77.1644L128.336 77.1656L128.371 67.1555L128.006 67.1542Z" fill="#32302C"/>
<path d="M160.934 85.9938L152.213 90.9701L152.395 91.2858L161.115 86.3095L160.934 85.9938Z" fill="#32302C"/>
<path d="M152.325 118.902L152.141 119.216L160.828 124.25L161.012 123.936L152.325 118.902Z" fill="#32302C"/>
<path d="M106.944 124.586L99.6416 131.464L99.8926 131.728L107.195 124.85L106.944 124.586Z" fill="#32302C"/>
<path d="M90.8029 93.765L90.6986 94.1137L100.33 96.9735L100.434 96.6248L90.8029 93.765Z" fill="#32302C"/>
<path d="M119.194 67.2917L118.838 67.376L121.168 77.1155L121.523 77.0311L119.194 67.2917Z" fill="#32302C"/>
<path d="M156.141 78.2503L148.841 85.1307L149.092 85.395L156.392 78.5146L156.141 78.2503Z" fill="#32302C"/>
<path d="M155.698 113.04L155.593 113.389L165.225 116.248L165.329 115.9L155.698 113.04Z" fill="#32302C"/>
<path d="M134.885 132.901L134.53 132.985L136.859 142.723L137.214 142.639L134.885 132.901Z" fill="#32302C"/>
<path d="M69.4714 101.802L69.4524 102.165L79.489 102.688L79.5081 102.324L69.4714 101.802Z" fill="#32302C"/>
<path d="M101.545 52.8931L101.22 53.0584L105.784 61.9767L106.109 61.8114L101.545 52.8931Z" fill="#32302C"/>
<path d="M159.787 55.8754L154.316 64.2726L154.623 64.4706L160.093 56.0735L159.787 55.8754Z" fill="#32302C"/>
<path d="M176.598 107.372L176.579 107.735L186.615 108.258L186.634 107.894L176.598 107.372Z" fill="#32302C"/>
<path d="M150.262 148.071L149.936 148.236L154.5 157.155L154.826 156.989L150.262 148.071Z" fill="#32302C"/>
<path d="M101.415 145.555L95.9394 153.949L96.2458 154.147L101.721 145.753L101.415 145.555Z" fill="#32302C"/>
<path d="M89.2711 59.7868L88.994 60.024L95.545 67.6178L95.8221 67.3807L89.2711 59.7868Z" fill="#32302C"/>
<path d="M147.626 48.8951L144.297 58.3421L144.641 58.4626L147.97 49.0156L147.626 48.8951Z" fill="#32302C"/>
<path d="M186.628 93.8372L176.75 95.6944L176.818 96.0519L186.696 94.1948L186.628 93.8372Z" fill="#32302C"/>
<path d="M160.498 142.389L160.221 142.627L166.769 150.22L167.046 149.983L160.498 142.389Z" fill="#32302C"/>
<path d="M111.404 151.565L108.077 161.011L108.422 161.131L111.749 151.685L111.404 151.565Z" fill="#32302C"/>
<path d="M79.2375 113.966L69.3609 115.82L69.4286 116.177L79.3051 114.324L79.2375 113.966Z" fill="#32302C"/>
<path d="M133.748 45.0035L132.762 54.9654L133.126 55.0011L134.112 45.0392L133.748 45.0035Z" fill="#32302C"/>
<path d="M183.066 79.9732L173.912 84.1092L174.063 84.4406L183.217 80.3046L183.066 79.9732Z" fill="#32302C"/>
<path d="M169.144 134.132L168.931 134.428L177.103 140.259L177.315 139.964L169.144 134.132Z" fill="#32302C"/>
<path d="M122.855 154.986L121.874 164.948L122.237 164.984L123.218 155.021L122.855 154.986Z" fill="#32302C"/>
<path d="M81.9793 125.627L72.8237 129.756L72.9744 130.088L82.13 125.959L81.9793 125.627Z" fill="#32302C"/>
<path d="M78.9327 69.7469L78.72 70.0427L86.8899 75.8727L87.1026 75.5769L78.9327 69.7469Z" fill="#32302C"/>
<path d="M191.683 54.9566L183.781 61.1454L184.007 61.4314L191.909 55.2427L191.683 54.9566Z" fill="#32302C"/>
<path d="M194.012 131.138L193.876 131.475L203.205 135.199L203.341 134.862L194.012 131.138Z" fill="#32302C"/>
<path d="M138.288 175.04L137.926 175.091L139.352 185L139.714 184.948L138.288 175.04Z" fill="#32302C"/>
<path d="M72.0389 148.569L64.1365 154.754L64.3622 155.04L72.2647 148.855L72.0389 148.569Z" fill="#32302C"/>
<path d="M52.7845 74.7603L52.6486 75.0981L61.9792 78.8227L62.1151 78.485L52.7845 74.7603Z" fill="#32302C"/>
<path d="M116.706 25L116.344 25.0516L117.771 34.9605L118.132 34.9088L116.706 25Z" fill="#32302C"/>
<path d="M199.042 114.737L198.991 115.097L208.944 116.487L208.995 116.126L199.042 114.737Z" fill="#32302C"/>
<path d="M155.079 171.158L154.74 171.295L158.509 180.576L158.848 180.44L155.079 171.158Z" fill="#32302C"/>
<path d="M83.7476 161.227L77.5628 169.117L77.8508 169.341L84.0356 161.451L83.7476 161.227Z" fill="#32302C"/>
<path d="M47.0507 93.5068L47 93.8672L56.953 95.2569L57.0037 94.8965L47.0507 93.5068Z" fill="#32302C"/>
<path d="M97.5429 29.4142L97.2042 29.5506L100.972 38.8306L101.311 38.6942L97.5429 29.4142Z" fill="#32302C"/>
<path d="M178.212 40.7322L172.027 48.6225L172.315 48.8464L178.5 40.9561L178.212 40.7322Z" fill="#32302C"/>
<path d="M147.567 123.654L154.827 130.576M121.59 131.191L119.201 140.916M102.049 112.556L92.3983 115.356M108.482 86.3803L101.223 79.4576M134.457 78.8427L136.848 69.1181M154.001 97.4785L163.649 94.6785M127.934 132.891L127.901 142.901M103.742 118.876L95.0214 123.854M103.833 91.0015L95.1456 85.9673M128.115 77.1434L128.148 67.1332M152.306 91.158L161.026 86.1802M152.216 119.033L160.904 124.067M107.076 124.747L99.7726 131.626M100.395 96.8126L90.7635 93.9525M121.344 77.0833L119.015 67.3442M148.972 85.2869L156.275 78.4097M155.654 113.222L165.286 116.082M134.706 132.951L137.035 142.69M79.4819 102.493L69.4444 101.971M105.947 61.8843L101.382 52.9658M154.49 64.4078L159.963 56.0114M176.568 107.541L186.605 108.064M150.101 148.15L154.666 157.068M101.557 145.626L96.0846 154.023M95.69 67.5316L89.1396 59.9376M144.451 58.3838L147.779 48.9377M176.785 95.8702L186.663 94.0181M160.359 142.504L166.908 150.098M111.597 151.65L108.268 161.096M79.2628 114.164L69.386 116.016M132.969 54.998L133.953 45.0351M173.988 84.2717L183.144 80.1399M169.043 134.292L177.214 140.123M123.079 155.036L122.094 164.999M82.0594 125.762L72.9041 129.894M87.0042 75.7425L78.8335 69.9114M183.896 61.2948L191.8 55.109M193.977 131.348L203.306 135.072M138.105 175.071L139.532 184.981M72.1534 148.739L64.2494 154.923M62.072 78.6862L52.7432 74.9619M117.942 34.9631L116.516 25.053M199.046 114.937L209 116.327M154.909 171.238L158.677 180.518M83.8879 161.317L77.7028 169.207M57.003 95.0969L47.0495 93.7069M101.139 38.7965L97.3705 29.5159M172.162 48.7175L178.347 40.8269M147.444 123.798L147.697 123.535L154.956 130.459L154.703 130.722L147.444 123.798ZM119.021 140.866L121.406 131.141L121.761 131.228L119.376 140.952L119.021 140.866ZM92.3505 115.173L101.999 112.372L102.102 112.721L92.4527 115.522L92.3505 115.173ZM101.109 79.6311L101.362 79.3683L108.621 86.2917L108.368 86.5546L101.109 79.6311ZM134.271 78.7903L136.659 69.067L137.014 69.1535L134.625 78.8768L134.271 78.7903ZM153.944 97.3265L163.595 94.5304L163.697 94.8798L154.046 97.6759L153.944 97.3265ZM127.738 142.915L127.768 132.905L128.134 132.906L128.104 142.916L127.738 142.915ZM94.9303 123.71L103.65 118.732L103.832 119.047L95.112 124.025L94.9303 123.71ZM95.072 86.1596L95.2557 85.8451L103.943 90.8789L103.759 91.1934L95.072 86.1596ZM127.97 77.1644L128.006 67.1542L128.371 67.1555L128.336 77.1656L127.97 77.1644ZM152.213 90.9701L160.934 85.9938L161.115 86.3095L152.395 91.2858L152.213 90.9701ZM152.141 119.216L152.325 118.902L161.012 123.936L160.828 124.25L152.141 119.216ZM99.6416 131.464L106.944 124.586L107.195 124.85L99.8926 131.728L99.6416 131.464ZM90.6986 94.1137L90.8029 93.765L100.434 96.6248L100.33 96.9735L90.6986 94.1137ZM118.838 67.376L119.194 67.2917L121.523 77.0311L121.168 77.1155L118.838 67.376ZM148.841 85.1307L156.141 78.2503L156.392 78.5146L149.092 85.395L148.841 85.1307ZM155.593 113.389L155.698 113.04L165.329 115.9L165.225 116.248L155.593 113.389ZM134.53 132.985L134.885 132.901L137.214 142.639L136.859 142.723L134.53 132.985ZM69.4524 102.165L69.4714 101.802L79.5081 102.324L79.489 102.688L69.4524 102.165ZM101.22 53.0584L101.545 52.8931L106.109 61.8114L105.784 61.9767L101.22 53.0584ZM154.316 64.2726L159.787 55.8754L160.093 56.0735L154.623 64.4706L154.316 64.2726ZM176.579 107.735L176.598 107.372L186.634 107.894L186.615 108.258L176.579 107.735ZM149.936 148.236L150.262 148.071L154.826 156.989L154.5 157.155L149.936 148.236ZM95.9394 153.949L101.415 145.555L101.721 145.753L96.2458 154.147L95.9394 153.949ZM88.994 60.024L89.2711 59.7868L95.8221 67.3807L95.545 67.6178L88.994 60.024ZM144.297 58.3421L147.626 48.8951L147.97 49.0156L144.641 58.4626L144.297 58.3421ZM176.75 95.6944L186.628 93.8372L186.696 94.1948L176.818 96.0519L176.75 95.6944ZM160.221 142.627L160.498 142.389L167.046 149.983L166.769 150.22L160.221 142.627ZM108.077 161.011L111.404 151.565L111.749 151.685L108.422 161.131L108.077 161.011ZM69.3609 115.82L79.2375 113.966L79.3051 114.324L69.4286 116.177L69.3609 115.82ZM132.762 54.9654L133.748 45.0035L134.112 45.0392L133.126 55.0011L132.762 54.9654ZM173.912 84.1092L183.066 79.9732L183.217 80.3046L174.063 84.4406L173.912 84.1092ZM168.931 134.428L169.144 134.132L177.315 139.964L177.103 140.259L168.931 134.428ZM121.874 164.948L122.855 154.986L123.218 155.021L122.237 164.984L121.874 164.948ZM72.8237 129.756L81.9793 125.627L82.13 125.959L72.9744 130.088L72.8237 129.756ZM78.72 70.0427L78.9327 69.7469L87.1026 75.5769L86.8899 75.8727L78.72 70.0427ZM183.781 61.1454L191.683 54.9566L191.909 55.2427L184.007 61.4314L183.781 61.1454ZM193.876 131.475L194.012 131.138L203.341 134.862L203.205 135.199L193.876 131.475ZM137.926 175.091L138.288 175.04L139.714 184.948L139.352 185L137.926 175.091ZM64.1365 154.754L72.0389 148.569L72.2647 148.855L64.3622 155.04L64.1365 154.754ZM52.6486 75.0981L52.7845 74.7603L62.1151 78.485L61.9792 78.8227L52.6486 75.0981ZM116.344 25.0516L116.706 25L118.132 34.9088L117.771 34.9605L116.344 25.0516ZM198.991 115.097L199.042 114.737L208.995 116.126L208.944 116.487L198.991 115.097ZM154.74 171.295L155.079 171.158L158.848 180.44L158.509 180.576L154.74 171.295ZM77.5628 169.117L83.7476 161.227L84.0356 161.451L77.8508 169.341L77.5628 169.117ZM47 93.8672L47.0507 93.5068L57.0037 94.8965L56.953 95.2569L47 93.8672ZM97.2042 29.5506L97.5429 29.4142L101.311 38.6942L100.972 38.8306L97.2042 29.5506ZM172.027 48.6225L178.212 40.7322L178.5 40.9561L172.315 48.8464L172.027 48.6225Z" stroke="#32302C"/>
<path d="M283.134 64.6676C283.048 63.7301 282.669 63.0014 281.996 62.4815C281.331 61.9531 280.381 61.6889 279.145 61.6889C278.327 61.6889 277.645 61.7955 277.099 62.0085C276.554 62.2216 276.145 62.5156 275.872 62.8906C275.599 63.2571 275.459 63.679 275.45 64.1562C275.433 64.5483 275.51 64.8935 275.68 65.1918C275.859 65.4901 276.115 65.7543 276.447 65.9844C276.788 66.206 277.197 66.402 277.675 66.5724C278.152 66.7429 278.689 66.892 279.286 67.0199L281.536 67.5312C282.831 67.8125 283.973 68.1875 284.962 68.6562C285.959 69.125 286.794 69.6832 287.467 70.331C288.149 70.9787 288.665 71.7244 289.014 72.5682C289.364 73.4119 289.543 74.358 289.551 75.4062C289.543 77.0597 289.125 78.4787 288.298 79.6634C287.472 80.848 286.283 81.7557 284.732 82.3864C283.189 83.017 281.327 83.3324 279.145 83.3324C276.955 83.3324 275.045 83.0043 273.418 82.348C271.79 81.6918 270.524 80.6946 269.621 79.3565C268.717 78.0185 268.253 76.3267 268.227 74.2812H274.287C274.338 75.125 274.564 75.8281 274.964 76.3906C275.365 76.9531 275.915 77.3793 276.614 77.669C277.321 77.9588 278.139 78.1037 279.068 78.1037C279.92 78.1037 280.645 77.9886 281.241 77.7585C281.847 77.5284 282.311 77.2088 282.635 76.7997C282.959 76.3906 283.125 75.9219 283.134 75.3935C283.125 74.8991 282.972 74.4773 282.673 74.1278C282.375 73.7699 281.915 73.4631 281.293 73.2074C280.679 72.9432 279.895 72.7003 278.94 72.4787L276.205 71.8395C273.938 71.3196 272.152 70.4801 270.848 69.321C269.544 68.1534 268.896 66.5767 268.905 64.5909C268.896 62.9716 269.331 61.5526 270.209 60.3338C271.087 59.1151 272.301 58.1648 273.852 57.483C275.403 56.8011 277.172 56.4602 279.158 56.4602C281.186 56.4602 282.946 56.8054 284.438 57.4957C285.938 58.1776 287.101 59.1364 287.928 60.3722C288.754 61.608 289.176 63.0398 289.193 64.6676H283.134ZM291.891 61.9574V56.8182H314.02V61.9574H306.081V83H299.842V61.9574H291.891ZM319.504 83H312.703L321.537 56.8182H329.962L338.795 83H331.994L325.845 63.4148H325.641L319.504 83ZM318.597 72.696H332.812V77.5028H318.597V72.696ZM337.638 56.8182H344.708L350.244 67.7741H350.474L356.009 56.8182H363.079L353.504 74.2557V83H347.214V74.2557L337.638 56.8182ZM379.794 56.8182V83H373.466V56.8182H379.794ZM406.049 56.8182V83H400.68L390.261 67.8892H390.095V83H383.767V56.8182H389.213L399.517 71.9034H399.734V56.8182H406.049ZM268.125 92.9574V87.8182H290.254V92.9574H282.315V114H276.077V92.9574H268.125ZM293.345 114V87.8182H299.673V98.3267H309.99V87.8182H316.305V114H309.99V103.479H299.673V114H293.345ZM320.275 114V87.8182H338.53V92.9574H326.603V98.3267H337.597V103.479H326.603V108.861H338.53V114H320.275ZM350.228 114V87.8182H356.556V108.861H367.448V114H350.228ZM394.416 100.909C394.416 103.79 393.862 106.232 392.754 108.234C391.646 110.237 390.146 111.759 388.254 112.798C386.37 113.838 384.257 114.358 381.913 114.358C379.561 114.358 377.443 113.834 375.559 112.786C373.676 111.737 372.18 110.216 371.072 108.222C369.973 106.219 369.423 103.781 369.423 100.909C369.423 98.0284 369.973 95.5866 371.072 93.5838C372.18 91.581 373.676 90.0597 375.559 89.0199C377.443 87.9801 379.561 87.4602 381.913 87.4602C384.257 87.4602 386.37 87.9801 388.254 89.0199C390.146 90.0597 391.646 91.581 392.754 93.5838C393.862 95.5866 394.416 98.0284 394.416 100.909ZM387.947 100.909C387.947 99.2045 387.704 97.7642 387.218 96.5881C386.741 95.4119 386.051 94.5213 385.147 93.9162C384.252 93.3111 383.174 93.0085 381.913 93.0085C380.66 93.0085 379.582 93.3111 378.679 93.9162C377.775 94.5213 377.081 95.4119 376.595 96.5881C376.118 97.7642 375.879 99.2045 375.879 100.909C375.879 102.614 376.118 104.054 376.595 105.23C377.081 106.406 377.775 107.297 378.679 107.902C379.582 108.507 380.66 108.81 381.913 108.81C383.174 108.81 384.252 108.507 385.147 107.902C386.051 107.297 386.741 106.406 387.218 105.23C387.704 104.054 387.947 102.614 387.947 100.909ZM422.822 100.909C422.822 103.79 422.268 106.232 421.16 108.234C420.052 110.237 418.552 111.759 416.66 112.798C414.777 113.838 412.663 114.358 410.319 114.358C407.967 114.358 405.849 113.834 403.966 112.786C402.082 111.737 400.586 110.216 399.478 108.222C398.379 106.219 397.829 103.781 397.829 100.909C397.829 98.0284 398.379 95.5866 399.478 93.5838C400.586 91.581 402.082 90.0597 403.966 89.0199C405.849 87.9801 407.967 87.4602 410.319 87.4602C412.663 87.4602 414.777 87.9801 416.66 89.0199C418.552 90.0597 420.052 91.581 421.16 93.5838C422.268 95.5866 422.822 98.0284 422.822 100.909ZM416.353 100.909C416.353 99.2045 416.11 97.7642 415.625 96.5881C415.147 95.4119 414.457 94.5213 413.554 93.9162C412.659 93.3111 411.581 93.0085 410.319 93.0085C409.066 93.0085 407.988 93.3111 407.085 93.9162C406.181 94.5213 405.487 95.4119 405.001 96.5881C404.524 97.7642 404.285 99.2045 404.285 100.909C404.285 102.614 404.524 104.054 405.001 105.23C405.487 106.406 406.181 107.297 407.085 107.902C407.988 108.507 409.066 108.81 410.319 108.81C411.581 108.81 412.659 108.507 413.554 107.902C414.457 107.297 415.147 106.406 415.625 105.23C416.11 104.054 416.353 102.614 416.353 100.909ZM426.517 114V87.8182H437.332C439.292 87.8182 440.984 88.2017 442.407 88.9688C443.839 89.7273 444.943 90.7884 445.718 92.152C446.494 93.5071 446.882 95.0838 446.882 96.8821C446.882 98.6889 446.485 100.27 445.693 101.625C444.909 102.972 443.788 104.016 442.331 104.757C440.873 105.499 439.143 105.869 437.14 105.869H430.467V100.884H435.964C436.919 100.884 437.716 100.717 438.355 100.385C439.002 100.053 439.493 99.5881 439.825 98.9915C440.157 98.3864 440.324 97.6832 440.324 96.8821C440.324 96.0724 440.157 95.3736 439.825 94.7855C439.493 94.1889 439.002 93.7287 438.355 93.4048C437.707 93.081 436.91 92.919 435.964 92.919H432.845V114H426.517Z" fill="white"/>
<path d="M416.83 70.0369V67.1477C418.313 67.1477 419.339 66.8537 419.911 66.2656C420.49 65.6776 420.78 64.7443 420.78 63.4659V61.0497C420.78 59.3366 421.031 57.9901 421.534 57.0099C422.045 56.0298 422.74 55.3097 423.618 54.8494C424.504 54.3892 425.527 54.0994 426.686 53.9801C427.845 53.8523 429.077 53.7884 430.381 53.7884V58.3778C429.358 58.3778 428.591 58.5014 428.08 58.7486C427.577 58.9957 427.24 59.3707 427.07 59.8736C426.899 60.3764 426.814 61.0114 426.814 61.7784V65.0511C426.814 65.6989 426.682 66.321 426.418 66.9176C426.153 67.5142 425.668 68.0469 424.96 68.5156C424.253 68.9844 423.243 69.3551 421.93 69.6278C420.626 69.9006 418.926 70.0369 416.83 70.0369ZM430.381 86.017C429.077 86.017 427.845 85.9531 426.686 85.8253C425.527 85.706 424.504 85.4162 423.618 84.956C422.74 84.4957 422.045 83.7756 421.534 82.7955C421.031 81.8153 420.78 80.4687 420.78 78.7557V76.3523C420.78 75.0653 420.49 74.1321 419.911 73.5526C419.339 72.9645 418.313 72.6705 416.83 72.6705V69.7685C418.926 69.7685 420.626 69.9091 421.93 70.1903C423.243 70.4631 424.253 70.8338 424.96 71.3026C425.668 71.7628 426.153 72.2912 426.418 72.8878C426.682 73.4844 426.814 74.1065 426.814 74.7543V78.027C426.814 78.794 426.899 79.429 427.07 79.9318C427.24 80.4347 427.577 80.8097 428.08 81.0568C428.591 81.304 429.358 81.4276 430.381 81.4276V86.017ZM416.83 72.6705V67.1477H421.93V72.6705H416.83ZM445.316 69.7685V72.6705C443.841 72.6705 442.814 72.9645 442.235 73.5526C441.655 74.1321 441.365 75.0653 441.365 76.3523V78.7557C441.365 80.4687 441.11 81.8153 440.598 82.7955C440.096 83.7756 439.401 84.4957 438.515 84.956C437.637 85.4162 436.618 85.706 435.459 85.8253C434.309 85.9531 433.077 86.017 431.765 86.017V81.4276C432.787 81.4276 433.55 81.304 434.053 81.0568C434.564 80.8097 434.905 80.4347 435.076 79.9318C435.246 79.429 435.331 78.794 435.331 78.027V74.7543C435.331 74.1065 435.463 73.4844 435.728 72.8878C435.992 72.2912 436.478 71.7628 437.185 71.3026C437.892 70.8338 438.898 70.4631 440.202 70.1903C441.515 69.9091 443.219 69.7685 445.316 69.7685ZM431.765 53.7884C433.077 53.7884 434.309 53.8523 435.459 53.9801C436.618 54.0994 437.637 54.3892 438.515 54.8494C439.401 55.3097 440.096 56.0298 440.598 57.0099C441.11 57.9901 441.365 59.3366 441.365 61.0497V63.4659C441.365 64.7443 441.655 65.6776 442.235 66.2656C442.814 66.8537 443.841 67.1477 445.316 67.1477V70.0369C443.219 70.0369 441.515 69.9006 440.202 69.6278C438.898 69.3551 437.892 68.9844 437.185 68.5156C436.478 68.0469 435.992 67.5142 435.728 66.9176C435.463 66.321 435.331 65.6989 435.331 65.0511V61.7784C435.331 61.0114 435.246 60.3764 435.076 59.8736C434.905 59.3707 434.564 58.9957 434.053 58.7486C433.55 58.5014 432.787 58.3778 431.765 58.3778V53.7884ZM445.316 67.1477V72.6705H440.215V67.1477H445.316Z" fill="#32302C"/>
</g>
<defs>
<filter id="filter0_d_4578_79203" x="0" y="0" width="506" height="212" filterUnits="userSpaceOnUse" color-interpolation-filters="sRGB">
<feFlood flood-opacity="0" result="BackgroundImageFix"/>
<feColorMatrix in="SourceAlpha" type="matrix" values="0 0 0 0 0 0 0 0 0 0 0 0 0 0 0 0 0 0 127 0" result="hardAlpha"/>
<feOffset dy="1"/>
<feGaussianBlur stdDeviation="1"/>
<feColorMatrix type="matrix" values="0 0 0 0 0 0 0 0 0 0 0 0 0 0 0 0 0 0 0.05 0"/>
<feBlend mode="normal" in2="BackgroundImageFix" result="effect1_dropShadow_4578_79203"/>
<feBlend mode="normal" in="SourceGraphic" in2="effect1_dropShadow_4578_79203" result="shape"/>
</filter>
</defs>
</svg>
