<svg width="112" height="112" viewBox="0 0 112 112" fill="none" xmlns="http://www.w3.org/2000/svg">
<path d="M0 33.6C0 21.8389 0 15.9583 2.28886 11.4662C4.3022 7.5148 7.5148 4.3022 11.4662 2.28886C15.9583 0 21.8389 0 33.6 0H78.4C90.1611 0 96.0416 0 100.534 2.28886C104.485 4.3022 107.698 7.5148 109.711 11.4662C112 15.9583 112 21.8389 112 33.6V78.4C112 90.1611 112 96.0417 109.711 100.534C107.698 104.485 104.485 107.698 100.534 109.711C96.0416 112 90.1611 112 78.4 112H33.6C21.8389 112 15.9583 112 11.4662 109.711C7.5148 107.698 4.3022 104.485 2.28886 100.534C0 96.0417 0 90.1611 0 78.4V33.6Z" fill="#FFD33B"/>
<path d="M95.5946 77.1784H78.0206C75.5014 71.0472 75.2358 66.3122 75.2358 65.6597C75.2358 65.3713 74.9019 65.4168 74.8792 65.6445C74.3025 71.2141 72.6862 74.1128 71.0775 77.1708H47.1296V62.7686C47.1296 60.8716 47.3344 58.9897 47.7138 57.1458C47.767 56.8803 47.3951 56.7589 47.2889 57.0093L38.7903 77.1708H20.4423C17.5512 77.1708 15.5935 74.2266 16.7165 71.5556L31.4222 36.6808C31.9003 35.5426 33.0157 34.8065 34.2526 34.8065H56.6526L52.8586 43.806C52.6006 44.4206 53.3745 44.9442 53.845 44.4738L55.3399 42.9789C60.5756 37.7507 67.6856 34.8141 75.084 34.8141C75.0992 42.2125 77.2694 49.3832 81.109 54.6038C84.9561 59.832 90.1615 62.7686 95.5946 62.7686V77.1708V77.1784Z" fill="#18181B"/>
</svg>
