<svg width="924" height="882" viewBox="0 0 924 882" fill="none" xmlns="http://www.w3.org/2000/svg">
<path d="M486.684 290.983L483.136 311.742L485.107 312.079L488.656 291.32L486.684 290.983Z" fill="#32302C"/>
<path d="M604.406 387.531L584.652 394.831L585.345 396.707L605.099 389.407L604.406 387.531Z" fill="#32302C"/>
<path d="M563.428 523.663L562.151 525.202L578.362 538.646L579.639 537.107L563.428 523.663Z" fill="#32302C"/>
<path d="M439.181 569.911L435.645 590.662L437.616 590.998L441.152 570.247L439.181 569.911Z" fill="#32302C"/>
<path d="M339.036 485.518L319.296 492.828L319.991 494.704L339.731 487.394L339.036 485.518Z" fill="#32302C"/>
<path d="M345.999 343.34L344.721 344.879L360.92 358.322L362.197 356.783L345.999 343.34Z" fill="#32302C"/>
<path d="M512.284 304.57L504.868 324.281L506.74 324.986L514.156 305.275L512.284 304.57Z" fill="#32302C"/>
<path d="M605.378 416.195L584.61 419.63L584.936 421.603L605.704 418.169L605.378 416.195Z" fill="#32302C"/>
<path d="M541.886 536.49L540.34 537.759L553.698 554.027L555.244 552.758L541.886 536.49Z" fill="#32302C"/>
<path d="M417.715 557.109L410.312 576.814L412.184 577.518L419.587 557.812L417.715 557.109Z" fill="#32302C"/>
<path d="M339.41 460.134L318.644 463.579L318.971 465.552L339.738 462.107L339.41 460.134Z" fill="#32302C"/>
<path d="M370.644 328.003L369.099 329.272L382.463 345.536L384.008 344.266L370.644 328.003Z" fill="#32302C"/>
<path d="M534.055 321.23L523.083 339.206L524.79 340.248L535.762 322.272L534.055 321.23Z" fill="#32302C"/>
<path d="M580.918 442.908L580.869 444.907L601.923 445.418L601.971 443.419L580.918 442.908Z" fill="#32302C"/>
<path d="M519.793 544.454L518.038 545.412L528.117 563.892L529.873 562.934L519.793 544.454Z" fill="#32302C"/>
<path d="M399.663 541.864L388.702 559.835L390.409 560.876L401.37 542.905L399.663 541.864Z" fill="#32302C"/>
<path d="M322.696 436.64L322.648 438.64L343.702 439.151L343.75 437.151L322.696 436.64Z" fill="#32302C"/>
<path d="M396.232 318.093L394.476 319.051L404.556 337.531L406.311 336.573L396.232 318.093Z" fill="#32302C"/>
<path d="M566.114 360.369L549.391 373.154L550.606 374.743L567.329 361.958L566.114 360.369Z" fill="#32302C"/>
<path d="M477.392 550.494L475.408 550.752L478.12 571.627L480.103 571.369L477.392 550.494Z" fill="#32302C"/>
<path d="M373.742 507.245L357.024 520.036L358.239 521.625L374.957 508.833L373.742 507.245Z" fill="#32302C"/>
<path d="M341.166 389.569L340.398 391.415L359.841 399.508L360.609 397.662L341.166 389.569Z" fill="#32302C"/>
<path d="M446.214 310.44L444.231 310.697L446.942 331.572L448.925 331.314L446.214 310.44Z" fill="#32302C"/>
<path d="M576.883 381.622L558.128 391.179L559.036 392.961L577.791 383.404L576.883 381.622Z" fill="#32302C"/>
<path d="M553.555 499.197L552.465 500.874L570.115 512.345L571.205 510.668L553.555 499.197Z" fill="#32302C"/>
<path d="M455.356 548.888L454.247 569.909L456.244 570.015L457.353 548.994L455.356 548.888Z" fill="#32302C"/>
<path d="M365.311 488.969L346.549 498.536L347.458 500.318L366.219 490.75L365.311 488.969Z" fill="#32302C"/>
<path d="M354.237 369.663L353.148 371.341L370.802 382.805L371.892 381.128L354.237 369.663Z" fill="#32302C"/>
<path d="M467.764 311.899L466.666 332.92L468.663 333.024L469.761 312.003L467.764 311.899Z" fill="#32302C"/>
<path d="M584.483 403.456L564.325 409.519L564.901 411.434L585.059 405.371L584.483 403.456Z" fill="#32302C"/>
<path d="M540.627 513.438L539.257 514.895L554.584 529.323L555.955 527.867L540.627 513.438Z" fill="#32302C"/>
<path d="M436.687 544.858L431.855 565.346L433.801 565.805L438.633 545.317L436.687 544.858Z" fill="#32302C"/>
<path d="M359.473 470.655L339.315 476.718L339.891 478.633L360.049 472.57L359.473 470.655Z" fill="#32302C"/>
<path d="M369.617 352.483L368.246 353.939L383.573 368.368L384.944 366.912L369.617 352.483Z" fill="#32302C"/>
<path d="M490.427 316.145L485.596 336.644L487.543 337.102L492.373 316.604L490.427 316.145Z" fill="#32302C"/>
<path d="M589.151 425.201L568.241 427.628L568.472 429.615L589.382 427.188L589.151 425.201Z" fill="#32302C"/>
<path d="M526.607 525.968L525.002 527.16L537.552 544.06L539.158 542.867L526.607 525.968Z" fill="#32302C"/>
<path d="M418.753 538.655L410.39 557.973L412.226 558.767L420.589 539.45L418.753 538.655Z" fill="#32302C"/>
<path d="M355.871 452.323L334.96 454.739L335.19 456.726L356.101 454.31L355.871 452.323Z" fill="#32302C"/>
<path d="M386.735 337.788L385.129 338.98L397.679 355.88L399.285 354.687L386.735 337.788Z" fill="#32302C"/>
<path d="M512.233 323.301L503.877 342.621L505.712 343.415L514.069 324.095L512.233 323.301Z" fill="#32302C"/>
<path d="M570.145 446.384L570.027 448.381L591.041 449.622L591.159 447.625L570.145 446.384Z" fill="#32302C"/>
<path d="M511.518 537.313L509.73 538.209L519.17 557.035L520.958 556.138L511.518 537.313Z" fill="#32302C"/>
<path d="M401.761 530.502L390.185 548.084L391.856 549.184L403.431 531.602L401.761 530.502Z" fill="#32302C"/>
<path d="M333.396 432.399L333.278 434.396L354.291 435.637L354.409 433.64L333.396 432.399Z" fill="#32302C"/>
<path d="M405.279 325.327L403.491 326.223L412.923 345.041L414.711 344.145L405.279 325.327Z" fill="#32302C"/>
<path d="M532.445 332.752L520.855 350.336L522.525 351.437L534.115 333.853L532.445 332.752Z" fill="#32302C"/>
<path d="M569.591 465.16L569.134 467.107L589.636 471.92L590.093 469.973L569.591 465.16Z" fill="#32302C"/>
<path d="M494.951 546.051L493.037 546.629L499.117 566.782L501.032 566.204L494.951 546.051Z" fill="#32302C"/>
<path d="M385.923 520.724L371.513 536.068L372.971 537.437L387.381 522.093L385.923 520.724Z" fill="#32302C"/>
<path d="M334.321 409.909L333.864 411.856L354.357 416.667L354.814 414.72L334.321 409.909Z" fill="#32302C"/>
<path d="M425.231 315.184L423.316 315.762L429.393 335.915L431.308 335.338L425.231 315.184Z" fill="#32302C"/>
<path d="M551.426 344.624L536.999 359.966L538.456 361.336L552.883 345.994L551.426 344.624Z" fill="#32302C"/>
<path d="M567.399 484.4L566.62 486.242L586.008 494.44L586.787 492.598L567.399 484.4Z" fill="#32302C"/>
<path d="M570.363 536.691L569.028 538.18L584.695 552.238L586.031 550.749L570.363 536.691Z" fill="#32302C"/>
<path d="M431.327 582.168L426.99 602.767L428.947 603.179L433.284 582.58L431.327 582.168Z" fill="#32302C"/>
<path d="M324.492 484.885L304.484 491.425L305.105 493.326L325.113 486.786L324.492 484.885Z" fill="#32302C"/>
<path d="M339.646 329.738L338.311 331.227L353.986 345.291L355.321 343.802L339.646 329.738Z" fill="#32302C"/>
<path d="M495.248 278.765L490.911 299.363L492.868 299.775L497.205 279.177L495.248 278.765Z" fill="#32302C"/>
<path d="M619.233 388.605L599.223 395.142L599.844 397.043L619.854 390.506L619.233 388.605Z" fill="#32302C"/>
<path d="M558.176 558.729L556.617 559.982L569.819 576.391L571.378 575.137L558.176 558.729Z" fill="#32302C"/>
<path d="M406.311 582.511L398.702 602.138L400.567 602.861L408.176 583.234L406.311 582.511Z" fill="#32302C"/>
<path d="M311.698 463.333L290.896 466.55L291.201 468.526L312.004 465.31L311.698 463.333Z" fill="#32302C"/>
<path d="M354.516 305.54L352.957 306.793L366.147 323.198L367.706 321.945L354.516 305.54Z" fill="#32302C"/>
<path d="M523.934 279.245L516.328 298.873L518.193 299.596L525.799 279.968L523.934 279.245Z" fill="#32302C"/>
<path d="M633.154 413.422L612.343 416.651L612.65 418.628L633.46 415.399L633.154 413.422Z" fill="#32302C"/>
<path d="M542.562 580.345L540.823 581.334L551.235 599.64L552.974 598.651L542.562 580.345Z" fill="#32302C"/>
<path d="M379.889 579.093L369.243 597.253L370.969 598.264L381.614 580.105L379.889 579.093Z" fill="#32302C"/>
<path d="M280.249 438.799L280.237 440.799L301.286 440.935L301.299 438.935L280.249 438.799Z" fill="#32302C"/>
<path d="M373.055 282.216L371.317 283.205L381.724 301.502L383.462 300.514L373.055 282.216Z" fill="#32302C"/>
<path d="M553.454 283.778L542.818 301.943L544.544 302.954L555.18 284.789L553.454 283.778Z" fill="#32302C"/>
<path d="M622.712 440.99L622.699 442.99L643.749 443.126L643.762 441.126L622.712 440.99Z" fill="#32302C"/>
<path d="M522.999 600.328L521.127 601.03L528.516 620.741L530.389 620.039L522.999 600.328Z" fill="#32302C"/>
<path d="M353.065 571.953L339.701 588.217L341.246 589.487L354.61 573.223L353.065 571.953Z" fill="#32302C"/>
<path d="M273.545 408.653L273.217 410.626L293.982 414.078L294.31 412.106L273.545 408.653Z" fill="#32302C"/>
<path d="M395.862 261.417L393.989 262.119L401.382 281.828L403.254 281.126L395.862 261.417Z" fill="#32302C"/>
<path d="M582.94 292.335L569.57 308.594L571.115 309.864L584.484 293.605L582.94 292.335Z" fill="#32302C"/>
<path d="M630.646 468.012L630.318 469.985L651.083 473.438L651.411 471.465L630.646 468.012Z" fill="#32302C"/>
<path d="M499.571 617.995L497.612 618.397L501.848 639.017L503.807 638.614L499.571 617.995Z" fill="#32302C"/>
<path d="M326.058 560.298L310.317 574.273L311.645 575.769L327.386 561.793L326.058 560.298Z" fill="#32302C"/>
<path d="M270.853 376.341L270.221 378.238L290.205 384.886L290.836 382.988L270.853 376.341Z" fill="#32302C"/>
<path d="M422.528 243.107L420.568 243.509L424.801 264.129L426.76 263.727L422.528 243.107Z" fill="#32302C"/>
<path d="M612.507 305.911L596.759 319.894L598.087 321.389L613.835 307.407L612.507 305.911Z" fill="#32302C"/>
<path d="M634.079 497.071L633.448 498.969L653.422 505.613L654.053 503.715L634.079 497.071Z" fill="#32302C"/>
<path d="M472.404 632.887L470.406 632.982L471.412 654.008L473.41 653.913L472.404 632.887Z" fill="#32302C"/>
<path d="M299.732 543.969L282.026 555.354L283.108 557.036L300.814 545.651L299.732 543.969Z" fill="#32302C"/>
<path d="M272.746 342.235L271.83 344.013L290.542 353.654L291.458 351.876L272.746 342.235Z" fill="#32302C"/>
<path d="M452.988 227.607L450.991 227.702L451.997 248.738L453.995 248.642L452.988 227.607Z" fill="#32302C"/>
<path d="M641.252 324.916L623.546 336.301L624.628 337.983L642.333 326.599L641.252 324.916Z" fill="#32302C"/>
<path d="M633.788 528.357L632.872 530.135L651.593 539.781L652.509 538.003L633.788 528.357Z" fill="#32302C"/>
<path d="M439.493 644.12L437.274 665.053L439.263 665.264L441.482 644.331L439.493 644.12Z" fill="#32302C"/>
<path d="M274.918 522.927L255.679 531.469L256.491 533.297L275.73 524.755L274.918 522.927Z" fill="#32302C"/>
<path d="M280.546 307.578L279.369 309.195L296.388 321.583L297.565 319.966L280.546 307.578Z" fill="#32302C"/>
<path d="M485.145 216.738L482.922 237.67L484.911 237.881L487.133 216.949L485.145 216.738Z" fill="#32302C"/>
<path d="M667.853 348.689L648.617 357.237L649.43 359.065L668.666 350.517L667.853 348.689Z" fill="#32302C"/>
<path d="M628.205 560.667L627.028 562.284L644.045 574.675L645.222 573.058L628.205 560.667Z" fill="#32302C"/>
<path d="M405.942 650.612L400.576 670.967L402.51 671.477L407.876 651.122L405.942 650.612Z" fill="#32302C"/>
<path d="M252.535 497.087L232.215 502.619L232.74 504.549L253.06 499.017L252.535 497.087Z" fill="#32302C"/>
<path d="M293.727 272.49L292.319 273.91L307.265 288.732L308.674 287.312L293.727 272.49Z" fill="#32302C"/>
<path d="M521.91 210.551L516.541 230.915L518.475 231.425L523.844 211.061L521.91 210.551Z" fill="#32302C"/>
<path d="M691.599 377.499L671.288 383.028L671.814 384.958L692.124 379.428L691.599 377.499Z" fill="#32302C"/>
<path d="M616.861 592.953L615.452 594.373L630.406 609.202L631.815 607.782L616.861 592.953Z" fill="#32302C"/>
<path d="M369.713 651.575L361.342 670.9L363.177 671.695L371.548 652.37L369.713 651.575Z" fill="#32302C"/>
<path d="M233.532 466.37L212.621 468.786L212.851 470.773L233.762 468.357L233.532 466.37Z" fill="#32302C"/>
<path d="M313.244 238.577L311.638 239.769L324.183 256.672L325.789 255.48L313.244 238.577Z" fill="#32302C"/>
<path d="M560.994 210.164L552.627 229.49L554.462 230.285L562.829 210.958L560.994 210.164Z" fill="#32302C"/>
<path d="M711.485 411.225L690.573 413.63L690.801 415.617L711.713 413.212L711.485 411.225Z" fill="#32302C"/>
<path d="M599.955 624.897L598.349 626.089L610.902 642.998L612.508 641.806L599.955 624.897Z" fill="#32302C"/>
<path d="M332.26 646.791L321.096 664.637L322.791 665.697L333.956 647.852L332.26 646.791Z" fill="#32302C"/>
<path d="M198.033 430.6L197.961 432.599L218.998 433.348L219.069 431.349L198.033 430.6Z" fill="#32302C"/>
<path d="M339.086 206.99L337.319 207.928L347.189 226.521L348.955 225.583L339.086 206.99Z" fill="#32302C"/>
<path d="M601.481 216.234L590.305 234.084L592 235.145L603.176 217.295L601.481 216.234Z" fill="#32302C"/>
<path d="M705.474 448.674L705.403 450.673L726.44 451.422L726.511 449.423L705.474 448.674Z" fill="#32302C"/>
<path d="M577.149 655.43L575.383 656.368L585.252 674.961L587.019 674.023L577.149 655.43Z" fill="#32302C"/>
<path d="M294.077 635.135L280.367 651.108L281.885 652.411L295.595 636.438L294.077 635.135Z" fill="#32302C"/>
<path d="M189.024 388.703L188.655 390.669L209.344 394.548L209.713 392.583L189.024 388.703Z" fill="#32302C"/>
<path d="M370.866 178.297L368.979 178.961L375.964 198.818L377.851 198.155L370.866 178.297Z" fill="#32302C"/>
<path d="M642.215 229.272L628.499 245.253L630.016 246.556L643.733 230.575L642.215 229.272Z" fill="#32302C"/>
<path d="M714.983 487.439L714.614 489.404L735.303 493.287L735.672 491.322L714.983 487.439Z" fill="#32302C"/>
<path d="M548.338 683.16L546.451 683.823L553.43 703.683L555.316 703.02L548.338 683.16Z" fill="#32302C"/>
<path d="M256.898 616.99L240.963 630.744L242.27 632.258L258.205 618.504L256.898 616.99Z" fill="#32302C"/>
<path d="M187.458 344.333L186.8 346.222L206.679 353.144L207.337 351.256L187.458 344.333Z" fill="#32302C"/>
<path d="M408.504 154.344L406.54 154.719L410.488 175.395L412.452 175.02L408.504 154.344Z" fill="#32302C"/>
<path d="M682.162 249.886L666.219 263.647L667.526 265.161L683.468 251.4L682.162 249.886Z" fill="#32302C"/>
<path d="M717.814 528.939L717.156 530.828L737.046 537.751L737.703 535.862L717.814 528.939Z" fill="#32302C"/>
<path d="M513.811 706.582L511.847 706.957L515.795 727.633L517.759 727.258L513.811 706.582Z" fill="#32302C"/>
<path d="M188.416 612.488L170.61 623.715L171.676 625.407L189.483 614.18L188.416 612.488Z" fill="#32302C"/>
<path d="M158.017 279.704L157.086 281.474L175.713 291.278L176.645 289.508L158.017 279.704Z" fill="#32302C"/>
<path d="M449.762 96.9072L447.763 96.9854L448.586 118.029L450.585 117.951L449.762 96.9072Z" fill="#32302C"/>
<path d="M752.703 256.674L734.896 267.9L735.963 269.592L753.769 258.366L752.703 256.674Z" fill="#32302C"/>
<path d="M748.278 590.429L747.347 592.199L765.974 602.004L766.906 600.234L748.278 590.429Z" fill="#32302C"/>
<path d="M475.736 763.89L473.737 763.968L474.557 785.012L476.555 784.934L475.736 763.89Z" fill="#32302C"/>
<path d="M152.209 575.735L132.928 584.183L133.731 586.015L153.012 577.567L152.209 575.735Z" fill="#32302C"/>
<path d="M173.721 227.526L172.536 229.137L189.49 241.613L190.675 240.003L173.721 227.526Z" fill="#32302C"/>
<path d="M500.787 84.0442L498.454 104.975L500.442 105.196L502.774 84.2657L500.787 84.0442Z" fill="#32302C"/>
<path d="M790.66 296.128L771.379 304.575L772.182 306.407L791.462 297.96L790.66 296.128Z" fill="#32302C"/>
<path d="M734.813 640.314L733.628 641.925L750.592 654.404L751.777 652.793L734.813 640.314Z" fill="#32302C"/>
<path d="M423.955 776.847L421.63 797.768L423.618 797.988L425.943 777.067L423.955 776.847Z" fill="#32302C"/>
<path d="M121.503 531.702L101.175 537.168L101.694 539.099L122.022 533.633L121.503 531.702Z" fill="#32302C"/>
<path d="M198.639 176.464L197.226 177.879L212.128 192.76L213.541 191.345L198.639 176.464Z" fill="#32302C"/>
<path d="M557.475 79.7985L552.035 100.144L553.967 100.66L559.407 80.3151L557.475 79.7985Z" fill="#32302C"/>
<path d="M822.692 343.302L802.354 348.771L802.874 350.702L823.212 345.233L822.692 343.302Z" fill="#32302C"/>
<path d="M712.161 689.109L710.748 690.524L725.653 705.403L727.066 703.988L712.161 689.109Z" fill="#32302C"/>
<path d="M370.283 781.335L364.856 801.674L366.789 802.189L372.216 781.851L370.283 781.335Z" fill="#32302C"/>
<path d="M97.8878 480.775L76.9685 483.118L77.1911 485.106L98.1104 482.763L97.8878 480.775Z" fill="#32302C"/>
<path d="M233.081 128.486L231.471 129.673L243.965 146.626L245.575 145.44L233.081 128.486Z" fill="#32302C"/>
<path d="M616.436 85.5228L608.006 104.811L609.838 105.612L618.269 86.3238L616.436 85.5228Z" fill="#32302C"/>
<path d="M847.153 397.037L826.234 399.38L826.456 401.367L847.376 399.025L847.153 397.037Z" fill="#32302C"/>
<path d="M680.349 735.252L678.739 736.438L691.227 753.384L692.837 752.197L680.349 735.252Z" fill="#32302C"/>
<path d="M314.539 776.417L306.112 795.706L307.945 796.507L316.372 777.217L314.539 776.417Z" fill="#32302C"/>
<path d="M61.9684 423.864L61.8875 425.862L82.9202 426.714L83.0011 424.716L61.9684 423.864Z" fill="#32302C"/>
<path d="M276.94 85.8336L275.168 86.7627L284.947 105.404L286.718 104.475L276.94 85.8336Z" fill="#32302C"/>
<path d="M675.492 101.713L664.229 119.509L665.919 120.578L677.182 102.783L675.492 101.713Z" fill="#32302C"/>
<path d="M841.851 455.38L841.77 457.378L862.803 458.23L862.884 456.232L841.851 455.38Z" fill="#32302C"/>
<path d="M639.524 777.038L637.753 777.968L647.543 796.614L649.314 795.684L639.524 777.038Z" fill="#32302C"/>
<path d="M258.234 761.256L246.989 779.051L248.68 780.119L259.925 762.324L258.234 761.256Z" fill="#32302C"/>
<path d="M56.9929 360.591L56.6082 362.554L77.2651 366.603L77.6498 364.64L56.9929 360.591Z" fill="#32302C"/>
<path d="M329.225 49.888L327.333 50.5361L334.154 70.45L336.047 69.8019L329.225 49.888Z" fill="#32302C"/>
<path d="M732.949 128.893L719.11 144.768L720.617 146.082L734.456 130.207L732.949 128.893Z" fill="#32302C"/>
<path d="M847.295 515.481L846.911 517.443L867.568 521.492L867.952 519.53L847.295 515.481Z" fill="#32302C"/>
<path d="M590.225 811.763L588.333 812.411L595.151 832.326L597.043 831.678L590.225 811.763Z" fill="#32302C"/>
<path d="M203.679 735.874L189.847 751.741L191.355 753.055L205.187 737.188L203.679 735.874Z" fill="#32302C"/>
<path d="M63.2199 295.175L62.5378 297.055L82.3259 304.233L83.008 302.353L63.2199 295.175Z" fill="#32302C"/>
<path d="M388.972 22.6116L387.003 22.9609L390.68 43.6873L392.649 43.3379L388.972 22.6116Z" fill="#32302C"/>
<path d="M786.459 166.801L770.351 180.352L771.638 181.882L787.747 168.332L786.459 166.801Z" fill="#32302C"/>
<path d="M841.779 577.621L841.097 579.501L860.885 586.68L861.567 584.8L841.779 577.621Z" fill="#32302C"/>
<path d="M533.676 837.97L531.707 838.319L535.387 859.045L537.356 858.695L533.676 837.97Z" fill="#32302C"/>
<path d="M152.6 699.958L136.486 713.503L137.773 715.034L153.887 701.489L152.6 699.958Z" fill="#32302C"/>
<path d="M81.5907 229.867L80.6248 231.618L99.0569 241.785L100.023 240.034L81.5907 229.867Z" fill="#32302C"/>
<path d="M454.717 6.18391L452.718 6.22266L453.126 27.2687L455.125 27.23L454.717 6.18391Z" fill="#32302C"/>
<path d="M834.192 215.46L816.17 226.336L817.203 228.048L835.226 217.172L834.192 215.46Z" fill="#32302C"/>
<path d="M825.008 639.997L824.042 641.748L842.472 651.918L843.439 650.167L825.008 639.997Z" fill="#32302C"/>
<path d="M471.169 855.084L469.169 855.123L469.577 876.169L471.577 876.13L471.169 855.084Z" fill="#32302C"/>
<path d="M107.188 653.989L89.1638 664.862L90.1969 666.575L108.221 655.702L107.188 653.989Z" fill="#32302C"/>
<path d="M112.288 167.021L111.059 168.599L127.662 181.538L128.892 179.961L112.288 167.021Z" fill="#32302C"/>
<path d="M522.675 0.877301L519.774 21.7266L521.755 22.0021L524.656 1.15288L522.675 0.877301Z" fill="#32302C"/>
<path d="M873.549 273.268L854.043 281.181L854.795 283.034L874.301 275.121L873.549 273.268Z" fill="#32302C"/>
<path d="M796.654 700.443L795.425 702.021L812.036 714.966L813.266 713.389L796.654 700.443Z" fill="#32302C"/>
<path d="M402.944 860.115L400.044 880.964L402.025 881.239L404.925 860.39L402.944 860.115Z" fill="#32302C"/>
<path d="M69.5598 598.902L50.0508 606.808L50.8019 608.661L70.3109 600.755L69.5598 598.902Z" fill="#32302C"/>
<path d="M154.951 109.015L153.486 110.377L167.818 125.794L169.283 124.433L154.951 109.015Z" fill="#32302C"/>
<path d="M594.095 8.43627L587.906 28.5664L589.817 29.1542L596.006 9.02402L594.095 8.43627Z" fill="#32302C"/>
<path d="M902.76 339.186L882.233 343.895L882.68 345.844L903.207 341.135L902.76 339.186Z" fill="#32302C"/>
<path d="M756.506 756.198L755.041 757.56L769.382 772.982L770.847 771.62L756.506 756.198Z" fill="#32302C"/>
<path d="M334.485 852.824L328.299 872.944L330.211 873.532L336.397 853.412L334.485 852.824Z" fill="#32302C"/>
<path d="M41.6668 536.505L21.1499 541.212L21.5971 543.161L42.114 538.455L41.6668 536.505Z" fill="#32302C"/>
<path d="M208.941 58.5213L207.275 59.6289L218.939 77.1641L220.604 76.0565L208.941 58.5213Z" fill="#32302C"/>
<path d="M665.06 29.4737L655.704 48.3301L657.496 49.219L666.852 30.3626L665.06 29.4737Z" fill="#32302C"/>
<path d="M920.022 410.886L899.005 412.223L899.132 414.219L920.149 412.882L920.022 410.886Z" fill="#32302C"/>
<path d="M705.499 805.034L703.834 806.143L715.504 823.674L717.169 822.565L705.499 805.034Z" fill="#32302C"/>
<path d="M266.945 832.875L257.592 851.733L259.384 852.622L268.737 833.764L266.945 832.875Z" fill="#32302C"/>
<path d="M25.2334 467.699L4.21582 469.036L4.34279 471.032L25.3604 469.695L25.2334 467.699Z" fill="#32302C"/>
<path d="M272.632 17.356L270.808 18.1768L279.447 37.3724L281.271 36.5516L272.632 17.356Z" fill="#32302C"/>
<path d="M732.519 63.8615L720.211 80.9512L721.834 82.12L734.142 65.0303L732.519 63.8615Z" fill="#32302C"/>
<path d="M902.941 484.546L902.74 486.536L923.693 488.653L923.894 486.664L902.941 484.546Z" fill="#32302C"/>
<path d="M644.833 844.351L643.009 845.172L651.648 864.367L653.472 863.547L644.833 844.351Z" fill="#32302C"/>
<path d="M202.285 799.616L189.978 816.693L191.601 817.863L203.908 800.785L202.285 799.616Z" fill="#32302C"/>
<path d="M0.453024 393.285L0.251953 395.274L21.1953 397.391L21.3964 395.401L0.453024 393.285Z" fill="#32302C"/>
</svg>
