<svg width="40" height="40" viewBox="0 0 40 40" fill="none" xmlns="http://www.w3.org/2000/svg">
<g id="--brands">
<rect id="surface" width="40" height="40" fill="#FEED02"/>
<g id="Vector">
<path fill-rule="evenodd" clip-rule="evenodd" d="M13.1823 19.6043C13.4418 19.8189 13.5957 20.117 13.644 20.4986H10.7887C10.8301 20.1311 10.984 19.8364 11.2504 19.615C11.5168 19.3936 11.8335 19.2829 12.2006 19.2829C12.5952 19.2829 12.9223 19.3902 13.1818 19.6048H13.1823V19.6043ZM10.8143 18.7261C10.4231 18.9474 10.1187 19.2611 9.90068 19.6665C9.68263 20.0714 9.5736 20.5433 9.5736 21.0812C9.5736 21.6191 9.68608 22.0789 9.91104 22.4809C10.136 22.8834 10.4547 23.1946 10.8666 23.416C11.278 23.6374 11.761 23.7485 12.315 23.7485C12.9519 23.7485 13.4832 23.5781 13.9089 23.2373C14.3347 22.8965 14.5956 22.4605 14.6928 21.9289H13.5715C13.495 22.2221 13.3391 22.4489 13.1038 22.6086C12.868 22.7683 12.5779 22.8484 12.2316 22.8484C11.7955 22.8484 11.4458 22.7154 11.1828 22.4498C10.9199 22.1843 10.7744 21.8235 10.7467 21.3667V21.3055H14.7555C14.7762 21.1628 14.7866 21.0229 14.7866 20.8865C14.7796 20.3826 14.6637 19.9432 14.4388 19.5684C14.2138 19.1941 13.9055 18.9042 13.5143 18.6998C13.1231 18.4954 12.6712 18.393 12.1591 18.393C11.647 18.393 11.205 18.5037 10.8143 18.7251V18.7261Z" fill="#18181B"/>
<path fill-rule="evenodd" clip-rule="evenodd" d="M9.18339 22.696V23.6874H5.1184V22.7067H6.47356C6.54361 22.7067 6.60084 22.6503 6.60084 22.5814V18.4066C6.60084 18.3377 6.54361 18.2813 6.47356 18.2813H5V17.3205H7.74239V22.5707C7.74239 22.6397 7.79961 22.696 7.86966 22.696H9.18339Z" fill="#18181B"/>
<path fill-rule="evenodd" clip-rule="evenodd" d="M18.7401 18.4551H18.4904C17.5062 18.4551 17.2172 18.8702 16.9991 19.1829C16.9873 19.1999 16.9759 19.2164 16.9641 19.2329C16.9128 19.3053 16.7973 19.2688 16.7973 19.181V18.4556H15.8008V23.6879H16.9222V21.0613C16.9222 19.983 16.9572 19.431 18.2413 19.4509C18.3661 19.4528 18.7401 19.4664 18.7401 19.4664V18.4551Z" fill="#18181B"/>
<path fill-rule="evenodd" clip-rule="evenodd" d="M21.9679 16.5607C22.219 16.8986 22.144 17.373 21.8006 17.6196C21.4573 17.8667 20.9753 17.7929 20.7247 17.455C20.4736 17.1171 20.5486 16.6428 20.8919 16.3961C21.2353 16.149 21.7173 16.2228 21.9679 16.5607Z" fill="#18181B"/>
<path fill-rule="evenodd" clip-rule="evenodd" d="M23.2081 22.696V23.6874H19.6897V22.7067H20.7716C20.8416 22.7067 20.8988 22.6503 20.8988 22.5814V19.5441C20.8988 19.4752 20.8416 19.4189 20.7716 19.4189H19.706V18.4581H22.0409V22.5712C22.0409 22.6406 22.0981 22.6965 22.1682 22.6965H23.2081V22.696Z" fill="#18181B"/>
<path fill-rule="evenodd" clip-rule="evenodd" d="M27.4704 22.3391C27.7541 22.0187 27.8961 21.6031 27.8961 21.0919C27.8961 20.5807 27.7541 20.1515 27.4704 19.8247C27.1862 19.4975 26.8123 19.3339 26.3491 19.3339C25.8858 19.3339 25.5114 19.4956 25.2278 19.8189C24.9436 20.1427 24.802 20.5598 24.802 21.071C24.802 21.5822 24.9436 22.01 25.2278 22.3333C25.5114 22.6571 25.8854 22.8188 26.3491 22.8188C26.8128 22.8188 27.1867 22.6591 27.4704 22.3387V22.3391ZM29.0076 18.4561V23.6888H27.8961V23.0261C27.8961 22.9416 27.7866 22.9052 27.7348 22.9732C27.7274 22.9829 27.7195 22.9931 27.7121 23.0033C27.4936 23.2893 27.1423 23.75 26.1616 23.75C25.6767 23.75 25.2445 23.6427 24.8637 23.4281C24.4828 23.2135 24.1854 22.9033 23.9703 22.4979C23.7557 22.093 23.6486 21.6172 23.6486 21.0725C23.6486 20.5277 23.7576 20.0723 23.9757 19.6669C24.1937 19.2616 24.4932 18.9484 24.874 18.7265C25.2544 18.5051 25.6836 18.3945 26.1616 18.3945C27.1739 18.3945 27.4965 18.8212 27.7225 19.1198L27.7343 19.1353C27.7861 19.2033 27.8961 19.1679 27.8961 19.0829V18.4566H29.0081H29.0076V18.4561Z" fill="#18181B"/>
<path fill-rule="evenodd" clip-rule="evenodd" d="M34.4031 18.9605C34.8007 19.3422 35 19.9553 35 20.8001V23.682H33.8683V20.8613C33.8683 20.3641 33.7608 19.9854 33.5467 19.7272C33.3321 19.4679 33.0168 19.3388 32.602 19.3388C32.1589 19.3388 31.8112 19.4907 31.5586 19.7932C31.306 20.0966 31.1797 20.5141 31.1797 21.0453V23.682H30.0584V18.4498H31.159V19.1295C31.159 19.2164 31.2705 19.2533 31.3233 19.1844C31.5605 18.8746 32.0603 18.3891 32.8619 18.3891C33.4919 18.3891 34.006 18.5799 34.4041 18.9615V18.9605H34.4031Z" fill="#18181B"/>
</g>
</g>
</svg>
