<svg width="40" height="40" viewBox="0 0 40 40" fill="none" xmlns="http://www.w3.org/2000/svg">
<g id="--brands">
<rect id="surface" width="40" height="40" fill="white"/>
<path id="vector" d="M34.0625 27.5H27.8217C26.9271 25.3295 26.8328 23.6533 26.8328 23.4223C26.8328 23.3202 26.7142 23.3363 26.7061 23.4169C26.5013 25.3886 25.9274 26.4148 25.3561 27.4973H16.8518V22.3988C16.8518 21.7273 16.9246 21.0611 17.0593 20.4083C17.0781 20.3143 16.9461 20.2713 16.9084 20.36L13.8904 27.4973H7.37473C6.34807 27.4973 5.65285 26.4551 6.05166 25.5095L11.2739 13.1635C11.4436 12.7606 11.8398 12.5 12.279 12.5H20.2336L18.8863 15.6859C18.7946 15.9035 19.0695 16.0888 19.2366 15.9223L19.7674 15.3931C21.6267 13.5423 24.1516 12.5027 26.7789 12.5027C26.7843 15.1218 27.5549 17.6603 28.9184 19.5084C30.2846 21.3592 32.1331 22.3988 34.0625 22.3988V27.4973V27.5Z" fill="#18181B"/>
</g>
</svg>
